<?xml version="1.0" encoding="utf-8"?>
<!-- Generator: Adobe Illustrator 24.0.2, SVG Export Plug-In . SVG Version: 6.00 Build 0)  -->
<svg version="1.1" id="Layer_1" xmlns="http://www.w3.org/2000/svg" xmlns:xlink="http://www.w3.org/1999/xlink" x="0px" y="0px"
	 viewBox="0 0 32 32" style="enable-background:new 0 0 32 32;" xml:space="preserve">
<style type="text/css">
	.st0{fill:url(#SVGID_1_);}
	.st1{fill:url(#SVGID_2_);}
	.st2{fill:url(#SVGID_3_);}
	.st3{fill:url(#SVGID_4_);}
</style>
<linearGradient id="SVGID_1_" gradientUnits="userSpaceOnUse" x1="19" y1="26.5" x2="24" y2="26.5">
	<stop  offset="0" style="stop-color:#9013FE"/>
	<stop  offset="1" style="stop-color:#6610F2"/>
</linearGradient>
<circle class="st0" cx="21.5" cy="26.5" r="2.5"/>
<linearGradient id="SVGID_2_" gradientUnits="userSpaceOnUse" x1="10" y1="26.5" x2="15" y2="26.5">
	<stop  offset="0" style="stop-color:#9013FE"/>
	<stop  offset="1" style="stop-color:#6610F2"/>
</linearGradient>
<circle class="st1" cx="12.5" cy="26.5" r="2.5"/>
<linearGradient id="SVGID_3_" gradientUnits="userSpaceOnUse" x1="3.9954" y1="12.9977" x2="26" y2="12.9977">
	<stop  offset="0" style="stop-color:#9013FE"/>
	<stop  offset="1" style="stop-color:#6610F2"/>
</linearGradient>
<path class="st2" d="M26,22c0,0.6-0.4,1-1,1H10.6c-1.4,0-2.6-1-2.9-2.3L7.3,19L4.4,6.2L4,4.2C3.9,3.7,4.2,3.1,4.8,3S5.9,3.2,6,3.8
	L6.5,6l2.9,13l0.3,1.2c0.1,0.4,0.5,0.8,1,0.8H25C25.6,21,26,21.4,26,22z"/>
<linearGradient id="SVGID_4_" gradientUnits="userSpaceOnUse" x1="4.45" y1="12.5" x2="26.3859" y2="12.5">
	<stop  offset="0" style="stop-color:#9013FE"/>
	<stop  offset="1" style="stop-color:#6610F2"/>
</linearGradient>
<path class="st3" d="M26.3,9.8l-1.9,7C24,18.1,22.8,19,21.5,19H7.3L4.4,6.2C4.6,6.1,4.8,6,5,6h18.4c1.7,0,3,1.3,3,3
	C26.4,9.3,26.4,9.5,26.3,9.8z"/>
</svg>
